# xmcd CD database file
# Copyright (C) 1993-1998 Ti Kan
#
# Track frame offsets:
# 150
# 13712
# 25312
# 43337
# 55912
# 69662
# 88912
# 102287
# 124437
# 140537
# 150162
# 164312
# 175687
# 192137
# 204012
# 217437
# 229712
# 246462
#
# Disc length: 3551 seconds
# Revision: 0
# Processed by: cddbd v1.4b41PL1 Copyright (c) Steve Scherf et al.
# Submitted via: CDSpectrumPro v3.3.333
#
DISCID=030ddd12
DTITLE=Sergio Rafael Orchestra - Easy Listening Gold (2) Beautiful Melodies
DYEAR=1900
DGENRE=
TTITLE0=A swinging safari
TTITLE1=This guy's in love with you
TTITLE2=Up where we belong
TTITLE3=Johnny guitar
TTITLE4=Love is a many spendoured thing
TTITLE5=Say you, say me
TTITLE6=That happy feeling
TTITLE7=Nikita
TTITLE8=To all the girls I've loved before
TTITLE9=Wheels
TTITLE10=Gentle on my mind
TTITLE11=Come softly to me
TTITLE12=Do that to me one more time
TTITLE13=Let your love flow
TTITLE14=Sealed with a kiss
TTITLE15=Sunny
TTITLE16=The world we knew
TTITLE17=I just can't stop loving you
EXTD=
EXTT0=
EXTT1=
EXTT2=
EXTT3=
EXTT4=
EXTT5=
EXTT6=
EXTT7=
EXTT8=
EXTT9=
EXTT10=
EXTT11=
EXTT12=
EXTT13=
EXTT14=
EXTT15=
EXTT16=
EXTT17=
PLAYORDER=
